<?xml version="1.0" standalone="no"?>
<!DOCTYPE svg PUBLIC "-//W3C//DTD SVG 20010904//EN"
 "http://www.w3.org/TR/2001/REC-SVG-20010904/DTD/svg10.dtd">
<svg version="1.0" xmlns="http://www.w3.org/2000/svg"
 width="142.000000pt" height="198.000000pt" viewBox="0 0 142.000000 198.000000"
 preserveAspectRatio="xMidYMid meet">

<g transform="translate(0.000000,198.000000) scale(0.100000,-0.100000)"
fill="#000000" stroke="none">
<path d="M622 1969 c-201 -24 -388 -142 -504 -318 -123 -189 -144 -467 -49
-667 33 -69 554 -918 584 -951 28 -31 86 -31 114 0 32 35 553 885 583 952 76
165 79 391 10 554 -15 34 -28 51 -40 51 -11 0 -94 -91 -213 -233 -264 -315
-290 -337 -399 -337 -173 0 -308 195 -239 345 10 22 37 61 60 87 23 26 116
136 206 245 196 234 202 253 90 267 -98 13 -131 14 -203 5z"/>
</g>
</svg>
